<?xml version="1.0" encoding="utf-8"?>
<!-- Generator: Adobe Illustrator 16.0.0, SVG Export Plug-In . SVG Version: 6.00 Build 0)  -->
<!DOCTYPE svg PUBLIC "-//W3C//DTD SVG 1.1//EN" "http://www.w3.org/Graphics/SVG/1.1/DTD/svg11.dtd">
<svg version="1.1" id="Layer_1" xmlns="http://www.w3.org/2000/svg" xmlns:xlink="http://www.w3.org/1999/xlink" x="0px" y="0px"
	 width="100px" height="80px" viewBox="0 0 100 80" enable-background="new 0 0 100 80" xml:space="preserve">
<path fill="#FFFFFF" d="M88.102,14.286c-3.839,0-7.235,1.892-9.308,4.795l-14.08,19.721C64.195,39.527,63.347,40,62.388,40
	c-1.579,0-2.857-1.279-2.857-2.857c0-0.587,0.176-1.131,0.479-1.585l11.886-17.787c1.212-1.815,1.921-3.996,1.921-6.342
	C73.816,5.118,68.699,0,62.388,0H2.625v11.429h51.19c0,3.156-2.559,5.714-5.713,5.714H2.625c0,4.064,0.854,7.929,2.383,11.428
	h37.379c0,3.156-2.559,5.715-5.714,5.715H8.339c5.211,6.938,13.509,11.429,22.857,11.429h14.048c1.579,0,2.857,1.279,2.857,2.856
	c0,1.578-1.279,2.858-2.857,2.858H31.196L12.104,80h34.57C62.489,80,75.906,69.718,80.6,55.473l6.431-19.517
	c2.089-6.336,5.901-11.888,10.885-16.101C95.919,16.52,92.271,14.286,88.102,14.286z M88.102,22.143
	c-1.184,0-2.144-0.96-2.144-2.143c0-1.183,0.96-2.143,2.144-2.143c1.183,0,2.143,0.96,2.143,2.143
	C90.244,21.183,89.284,22.143,88.102,22.143z"/>
</svg>
